<?xml version="1.0" encoding="utf-8"?>
<!-- Generator: Adobe Illustrator 21.0.0, SVG Export Plug-In . SVG Version: 6.00 Build 0)  -->
<svg version="1.1" id="图层_1" xmlns="http://www.w3.org/2000/svg" xmlns:xlink="http://www.w3.org/1999/xlink" x="0px" y="0px"
	 viewBox="0 0 200 200" style="enable-background:new 0 0 200 200;" xml:space="preserve">
<style type="text/css">
	.st0{fill:#FFFFFF;}
</style>
<path class="st0" d="M85.5,80.7c0-1.8-1.4-3.2-3.2-3.2c-1.8,0-3.2,1.5-3.2,3.2c0,1.4-0.6,2.7-1.5,3.7c-0.9,0.9-2.2,1.5-3.7,1.5
	s-2.7-0.6-3.7-1.5c-0.9-0.9-1.5-2.2-1.5-3.7c0-1.8-1.5-3.2-3.2-3.2c-1.8,0-3.2,1.5-3.2,3.2c0,3.2,1.3,6.1,3.4,8.2
	c2.1,2.1,5,3.4,8.2,3.4c3.2,0,6.1-1.3,8.2-3.4C84.2,86.8,85.5,83.9,85.5,80.7z M134.4,88.9c2.1-2.1,3.4-5,3.4-8.2
	c0-1.8-1.4-3.2-3.2-3.2c-1.8,0-3.2,1.5-3.2,3.2c0,1.4-0.6,2.7-1.5,3.7c-0.9,0.9-2.2,1.5-3.7,1.5s-2.7-0.6-3.7-1.5
	c-0.9-0.9-1.5-2.2-1.5-3.7c0-1.8-1.5-3.2-3.2-3.2c-1.8,0-3.2,1.5-3.2,3.2c0,3.2,1.3,6.1,3.4,8.2c2.1,2.1,5,3.4,8.2,3.4
	C129.3,92.3,132.2,91,134.4,88.9L134.4,88.9z M78.1,128.9c0-6.1,2.4-11.5,6.4-15.5c4-4,9.4-6.4,15.5-6.4c6,0,11.5,2.5,15.5,6.4
	l0.2,0.2c3.9,3.9,6.3,9.4,6.3,15.3c0,1.8,1.5,3.2,3.2,3.2c1.8,0,3.2-1.4,3.2-3.2c0-7.7-3.1-14.7-8.1-19.9c-0.1-0.1-0.1-0.1-0.2-0.2
	c-5.1-5.1-12.2-8.3-20.1-8.3s-14.9,3.2-20.1,8.3v0c-5.1,5.1-8.3,12.2-8.3,20c0,1.8,1.4,3.2,3.2,3.2
	C76.7,132.1,78.1,130.6,78.1,128.9L78.1,128.9z M144.2,55.8c-11.3-11.3-26.9-18.3-44.2-18.3s-32.9,7-44.2,18.3S37.5,82.7,37.5,100
	c0,6.4,1,12.6,2.8,18.5c1.7,5.5,4.2,10.7,7.2,15.5l-6,17.9c-0.5,1.4-0.6,2.5-0.5,3.4c0.2,1.4,0.9,2.4,1.8,3c0.8,0.5,1.7,0.8,2.7,0.8
	h0.1c1,0,2-0.3,2.8-0.7l0.1-0.1l16.9-8.3c1.6-0.8,2.3-2.7,1.5-4.3c-0.8-1.6-2.7-2.3-4.3-1.5l-14,7l5.5-16.4c0.5-1.1,0.3-2.4-0.4-3.3
	c-3.1-4.6-5.5-9.6-7.2-14.9c-1.6-5.2-2.5-10.8-2.5-16.6c0-15.5,6.3-29.5,16.4-39.6S84.5,44,100,44s29.5,6.3,39.6,16.4
	C149.7,70.5,156,84.6,156,100s-6.3,29.5-16.4,39.6C129.5,149.8,115.4,156,100,156c-3.5,0-6.8-0.3-10.1-0.9c-3.3-0.6-6.5-1.5-9.6-2.7
	c-1.7-0.6-3.5,0.2-4.2,1.9c-0.6,1.7,0.2,3.5,1.9,4.2c3.4,1.3,7.1,2.3,10.8,3c3.7,0.7,7.4,1,11.2,1c17.2,0,32.9-7,44.2-18.3
	c11.3-11.3,18.3-27,18.3-44.2S155.5,67.1,144.2,55.8L144.2,55.8z"/>
</svg>
